<?xml version="1.0" encoding="iso-8859-1"?>
<!-- Generator: Adobe Illustrator 19.0.0, SVG Export Plug-In . SVG Version: 6.00 Build 0)  -->
<svg version="1.1" id="Layer_1" xmlns="http://www.w3.org/2000/svg" xmlns:xlink="http://www.w3.org/1999/xlink" x="0px" y="0px"
	 viewBox="0 0 299.236 299.236" style="enable-background:new 0 0 299.236 299.236;" xml:space="preserve">
<g id="XMLID_194_">
	<g>
		<g>
			<circle cx="123.485" cy="24.629" r="24.629"/>
			<path d="M92.283,146.959l-6.794-3.299l-4.31,22.249C84.407,159.565,88.228,152.952,92.283,146.959z"/>
			<path d="M83.114,188.453c-2.281-0.621-4.237-2.061-5.524-4.018l-1.255,6.475c-0.792,4.088,2.359,7.864,6.481,7.864
				c2.56,0,5.63,0,9.068,0v86.201c0,7.875,6.384,14.26,14.26,14.26c7.876,0,14.26-6.385,14.26-14.26l-0.1-86.399L83.114,188.453z"/>
			<path d="M195.577,99.904l-14.38,5.862c-3.667-9.229-7.282-17.594-9.649-24.48c-4.438-12.912-11.292-20.697-20.429-23.246
				c-6.3,17.777-6.514,18.381-10.395,29.335l1.772,14.484c5.034,0.427,9.207,4.177,10.106,9.233
				c0.944,5.305-2.018,10.415-6.817,12.376l6.989,40.676c0.615,3.58-2.146,6.822-5.744,6.822c-3.328,0-7.608,0-12.3,0
				c-0.092,8.18-0.702,15.434-1.329,19.9c-0.52,3.7-3.139,6.828-6.837,7.924v86.184c0,7.875,6.384,14.26,14.26,14.26
				s14.26-6.385,14.26-14.26v-86.201c3.438,0,6.509,0,9.068,0c4.144,0,7.272-3.782,6.481-7.864
				c-18.431-95.159-16.19-82.86-17.073-90.078c3.136,7.79,6.512,15.755,9.679,24.554c1.096,3.046,3.388,5.513,6.345,6.831
				c2.956,1.318,6.323,1.372,9.322,0.15l19.778-8.063c-1.524-5.013-3.332-10.791-3.662-16.633
				C194.868,104.94,195.055,102.349,195.577,99.904z"/>
			<path d="M105.018,57.108c2.257,6.369,7.703,21.735,10.315,29.106c6.22,0,10.414,0,15.977,0
				c2.533-7.148,8.079-22.797,10.315-29.106C126.595,57.108,121.129,57.108,105.018,57.108z"/>
			<path d="M125.999,145.089c-5.413,7.732-15.76,10.589-24.494,6.348l-3.21-1.559c-6.632,9.649-12.592,21.16-15.456,28.089
				c-0.703,1.702,0.259,3.626,2.012,4.103c40.767,11.098,38.349,10.501,38.982,10.501c1.513,0,2.803-1.113,3.015-2.624
				C128.304,179.589,129.082,158.51,125.999,145.089z"/>
			<path d="M146.089,112.252c-0.448-2.517-2.854-4.195-5.37-3.747l-18.271,3.253c-3.236,0.575-3.717,3.566-3.98,4.53
				c4.629,2.245,7.99,6,9.749,10.533c0.959,1.091,2.336,2.485,3.599,3.577c5.955,5.02,6.814,5.102,7.793,4.274
				c2.66-2.25-4.152-4.582-7.601-15.209l10.334-1.84C144.859,117.174,146.537,114.77,146.089,112.252z"/>
			<path d="M120.719,139.074c2.867-5.904,0.405-13.014-5.499-15.881l-29.336-14.245c1.508-2.352,10.265-16.63,13.538-21.982
				l-5.072,17.611l9.242,4.488l2.569-21.005c-4.644-13.105-5.258-14.838-10.605-29.927c-9.127,2.754-13.368,10.526-16.632,16.511
				c-3.38,6.202-18.107,29.292-19.46,31.349c-5.507,8.375-2.14,15.506,3.925,18.453l41.449,20.127
				C110.744,147.441,117.854,144.977,120.719,139.074z"/>
			<path d="M235.515,129.474c-3.969-14.897,2.977-22.546-2.756-39.139c-1.97-5.702-5.252-7.734-8.887-7.734
				c-6.944,0-15.177,7.415-18.013,10.836c-12.124,14.617,5.898,34.832,1.047,46.786c-4.851,11.955-0.671,21.302,6.119,21.373
				c7.769,0.082,13.402,2.034,18.461,2.034c2.695,0,5.227-0.554,7.832-2.24C246.815,156.54,239.483,144.371,235.515,129.474z"/>
		</g>
	</g>
</g>
<g>
</g>
<g>
</g>
<g>
</g>
<g>
</g>
<g>
</g>
<g>
</g>
<g>
</g>
<g>
</g>
<g>
</g>
<g>
</g>
<g>
</g>
<g>
</g>
<g>
</g>
<g>
</g>
<g>
</g>
</svg>
